<svg width="55" height="55" fill="none" xmlns="http://www.w3.org/2000/svg"><path d="M55 26.815c0-.196-.196-.49-.392-.392h-3.922c-.098 0-.098-.097-.196-.195C50 14.092 39.804 4.404 27.55 4.404 14.804 4.404 4.412 14.778 4.412 27.5s10.392 23.096 23.137 23.096c10.98 0 20.49-7.83 22.647-18.496l.098-.881a.422.422 0 00-.392-.392H37.647c-.098 0-.196-.098-.196-.195v-6.068a.21.21 0 01.196-.196h7.647c.196 0 .392-.195.392-.391l-.098-.88c-2.059-8.515-9.51-14.29-18.039-14.29-10.392 0-18.725 8.32-18.725 18.693 0 10.374 8.43 18.692 18.725 18.692 6.667 0 12.843-3.62 16.176-9.297.099-.196.295-.685.295-.783v-.49c0-.195-.098-.293-.295-.293h-10.49a.21.21 0 01-.196-.196V20.16a.21.21 0 01.196-.196h4.314c.196 0 .294-.195.294-.391 0 0 0-.294-.098-.587v-.098l-.294-.587c-.49-.979-1.765-2.349-4.608-3.72a14.322 14.322 0 00-5.392-1.076c-7.843 0-14.314 6.361-14.314 14.289 0 7.633 5.98 13.799 13.53 14.19h1.47c.294 0 .49-.196.49-.392v-23.29a.422.422 0 00-.392-.392h-1.47c-5.098.392-9.118 4.698-9.118 9.787s3.824 9.297 8.824 9.786v1.077l-.008 1.258-.875-.084c-5.784-.979-10.098-5.97-10.098-11.94 0-6.654 5.49-12.135 12.157-12.135 2.451 0 4.902.783 6.96 2.153 0 .098 0 .098-.097.098h-3.04c-.293 0-.49.196-.49.392V37.19c0 .195.197.391.393.391h9.117a.21.21 0 01.196.196s-.098.195-.392.587v.098a16.517 16.517 0 01-12.647 5.872c-9.118 0-16.569-7.438-16.569-16.54 0-9.1 7.451-16.539 16.57-16.539 6.862 0 13.038 4.306 15.391 10.57v.196c0 .195-.196.293-.392.293h-6.96a.422.422 0 00-.393.392v9.982c0 .196.196.49.392.49H47.55c.098.097.196.195.196.293-2.549 8.905-10.784 15.267-20.196 15.267-11.569 0-20.98-9.395-20.98-20.943 0-11.548 9.411-21.237 20.98-21.237 11.176 0 20.294 8.71 20.98 19.67 0 .099-.098.099-.196.197h-7.647c-.196 0-.392.195-.392.39v1.273c0 .294.196.49.392.49h11.961c.196 0 .294.195.294.293v.098c-.882 13.31-11.96 23.879-25.392 23.879-14.02 0-25.392-11.45-25.392-25.347 0-13.897 11.372-25.347 25.392-25.347 11.275 0 20.98 7.34 24.216 17.811l.686 3.426c0 .195.294.391.49.293l1.275-.293c.294-.098.392-.294.392-.49v-.098l-.294-1.272-.098-.685C51.275 8.71 40.392 0 27.549 0 12.353 0 0 12.331 0 27.5S12.353 55 27.549 55C42.451 55 54.608 43.06 55 28.283v-1.468zm-28.627 8.318c-3.726-.587-6.57-3.816-6.57-7.633s2.844-7.046 6.57-7.634a.21.21 0 01.196.196v1.077l.016 13.994h-.212z" fill="#000"/></svg>