<svg width="52" height="52" fill="none" xmlns="http://www.w3.org/2000/svg"><path d="M44.385 7.615C39.474 2.705 32.945 0 26 0 19.055 0 12.526 2.705 7.615 7.615 2.705 12.525 0 19.055 0 26c0 6.945 2.704 13.474 7.615 18.385C12.525 49.295 19.055 52 26 52c6.945 0 13.474-2.705 18.385-7.615C49.295 39.474 52 32.945 52 26c0-6.945-2.705-13.474-7.615-18.385zM26 48.953C13.344 48.953 3.047 38.656 3.047 26 3.047 13.344 13.344 3.047 26 3.047c12.656 0 22.953 10.297 22.953 22.953 0 12.656-10.297 22.953-22.953 22.953z" fill="#000"/><path d="M38.422 17.657a1.524 1.524 0 00-2.155 0L22.814 31.11l-7.081-7.081a1.523 1.523 0 00-2.155 2.154l8.16 8.16c.297.297.686.445 1.076.445s.78-.148 1.078-.446l14.53-14.53a1.524 1.524 0 000-2.155z" fill="#000"/></svg>